<?xml version="1.0" encoding="utf-8"?>
<!-- Generator: Adobe Illustrator 16.0.4, SVG Export Plug-In . SVG Version: 6.00 Build 0)  -->
<!DOCTYPE svg PUBLIC "-//W3C//DTD SVG 1.1//EN" "http://www.w3.org/Graphics/SVG/1.1/DTD/svg11.dtd">
<svg version="1.1" id="Layer_1" xmlns="http://www.w3.org/2000/svg" xmlns:xlink="http://www.w3.org/1999/xlink" x="0px" y="0px"
	 width="38px" height="25.044px" viewBox="0 0 38 25.044" enable-background="new 0 0 38 25.044" xml:space="preserve">
<g>
	<path d="M17.95,0.547L17.95,0.547C17.941,0.547,17.95,0.547,17.95,0.547 M38,0.544V0.002h-6.302v0.542l0.518,0.001
		c1.331,0,1.622,0.337,1.647,1.438v10.539H21.976V2.155c0-1.199,0.242-1.586,1.533-1.608l0.773-0.001V0.004h-3.467H17.95v0.542
		v0.001c0.015,0,0.514,0,0.514,0c1.311,0.017,1.557,0.396,1.559,1.591V24.32c-1.827,0-2.245-1.099-2.997-2.715
		c-2.334-5.021-3.758-8.041-9.721-8.734h1.24c3.375-0.013,8.109-1.235,8.109-6.32c0-5.788-6.499-6.545-8.179-6.55
		c0,0-5.107,0.004-8.475,0.004v0.542v0.001c0.019,0,0.102-0.001,0.42-0.001c1.396,0,1.649,0.371,1.65,1.6v20.843
		c-0.039,0.991-0.335,1.32-1.532,1.337L0,24.328v0.717h6.503v-0.717l-0.939-0.002c-1.276-0.023-1.51-0.409-1.51-1.605H4.048
		l0.003-9.525c0.64,0,1.689,0,1.689,0c1.805,0,3.447,0.076,4.627,1.037c3.298,2.676,3.483,10.812,9.004,10.812h5.023v-0.717
		l-0.785-0.002c-1.379,0-1.635-0.374-1.635-1.605v-9.528h11.888v9.698c-0.025,1.102-0.316,1.438-1.647,1.438h-0.518v0.717H38v-0.717
		h-0.53c-1.271,0-1.595-0.307-1.641-1.299V1.844c0.046-0.99,0.37-1.298,1.641-1.298L38,0.544z M4.052,12.522L4.048,2.124
		C4.052,0.966,4.29,0.581,5.519,0.547c0.551,0,1.059,0,1.117,0c0.425,0,0.702,0,0.947,0H7.581c4.838,0,7.131,2.467,7.131,6.043
		c0,3.384-2.508,5.933-6.185,5.933L4.052,12.522z"/>
</g>
</svg>
